SplineFontDB: 3.2
FontName: Sound_Mess
FullName: Sound_Mess
FamilyName: Sound_Mess
Weight: Regular
Copyright: Copyright (c) 2021
UComments: "2021-12-29: Created with FontForge (http://fontforge.org)"
Version: 001.000
ItalicAngle: 0
UnderlinePosition: 0
UnderlineWidth: 0
Ascent: 384
Descent: 128
InvalidEm: 0
LayerCount: 2
Layer: 0 0 "Back" 1
Layer: 1 0 "Fore" 0
XUID: [1021 739 -1243588870 9895223]
FSType: 0
OS2Version: 0
OS2_WeightWidthSlopeOnly: 0
OS2_UseTypoMetrics: 1
CreationTime: 1640798016
ModificationTime: 1642343135
PfmFamily: 17
TTFWeight: 400
TTFWidth: 5
LineGap: 0
VLineGap: 0
OS2TypoAscent: 0
OS2TypoAOffset: 1
OS2TypoDescent: 0
OS2TypoDOffset: 1
OS2TypoLinegap: 0
OS2WinAscent: 0
OS2WinAOffset: 1
OS2WinDescent: 0
OS2WinDOffset: 1
HheadAscent: 0
HheadAOffset: 1
HheadDescent: 0
HheadDOffset: 1
OS2Vendor: 'PfEd'
MarkAttachClasses: 1
DEI: 91125
LangName: 1033
Encoding: ISO8859-1
UnicodeInterp: none
NameList: AGL For New Fonts
DisplaySize: -48
AntiAlias: 1
FitToEm: 0
WinInfo: 0 27 10
BeginPrivate: 0
EndPrivate
BeginChars: 256 53

StartChar: A
Encoding: 65 65 0
Width: 512
Flags: HW
LayerCount: 2
Fore
SplineSet
384 -102 m 1
 298 -102 214 -102 128 -102 c 1
 170 48 214 196 256 346 c 1
 298 196 342 48 384 -102 c 1
EndSplineSet
EndChar

StartChar: B
Encoding: 66 66 1
Width: 512
Flags: HW
LayerCount: 2
Fore
SplineSet
204 -102 m 1
 160 -16 116 70 70 154 c 1
 96 204 122 252 148 302 c 2
 166 338 186 374 204 410 c 1
 274 368 342 326 410 282 c 1
 342 238 274 196 204 154 c 1
 274 112 342 70 410 26 c 1
 342 -18 274 -60 204 -102 c 1
EndSplineSet
EndChar

StartChar: C
Encoding: 67 67 2
Width: 512
Flags: HW
LayerCount: 2
Fore
SplineSet
156 308 m 1050
220 64 m 1
 288 36 356 8 424 -20 c 1
 356 -46 288 -74 220 -102 c 1
 174 -26 128 50 84 128 c 1
 128 206 174 282 220 358 c 1
 288 330 356 302 424 276 c 1
 356 248 288 220 220 192 c 1
 220 150 220 106 220 64 c 1
EndSplineSet
EndChar

StartChar: D
Encoding: 68 68 3
Width: 512
Flags: HW
LayerCount: 2
Fore
SplineSet
154 -102 m 1
 154 68 154 240 154 410 c 1
 222 324 290 240 358 154 c 1
 290 68 222 -16 154 -102 c 1
EndSplineSet
EndChar

StartChar: E
Encoding: 69 69 4
Width: 512
Flags: HW
LayerCount: 2
Fore
SplineSet
128 76 m 1
 128 128 128 178 128 230 c 1
 214 204 298 180 384 154 c 1
 298 128 212 102 128 76 c 1
128 -102 m 1
 128 -50 128 0 128 52 c 1
 212 26 298 0 384 -26 c 1
 298 -52 214 -76 128 -102 c 1
128 256 m 1
 128 308 128 358 128 410 c 1
 214 384 300 358 384 332 c 1
 298 306 214 282 128 256 c 1
EndSplineSet
EndChar

StartChar: F
Encoding: 70 70 5
Width: 512
Flags: HW
LayerCount: 2
Fore
SplineSet
110 358 m 1
 144 358 176 358 210 358 c 1
 192 206 176 52 160 -102 c 1
 144 52 128 206 110 358 c 1
236 102 m 1
 236 136 236 170 236 204 c 1
 298 186 360 170 422 152 c 1
 330 126 l 1
 236 102 l 1
236 240 m 1
 236 288 236 334 236 382 c 1
 320 358 406 334 492 312 c 1
 406 288 322 264 236 240 c 1
EndSplineSet
EndChar

StartChar: G
Encoding: 71 71 6
Width: 512
Flags: HW
LayerCount: 2
Fore
SplineSet
402 138 m 1
 424 98 l 1
 448 60 l 1
 384 10 318 -38 252 -86 c 1
 186 -38 120 10 56 60 c 1
 92 130 128 202 164 274 c 1
 226 150 l 1
 164 274 l 1
 234 272 l 1
 306 272 l 1
 280 232 254 190 226 150 c 1
 272 60 l 1
 354 60 l 1
 356 62 l 1
 340 86 328 110 314 136 c 1
 358 136 l 1
 402 138 l 1
EndSplineSet
EndChar

StartChar: H
Encoding: 72 72 7
Width: 512
Flags: HW
LayerCount: 2
Fore
SplineSet
322 136 m 1
 278 136 232 136 188 136 c 1
 210 176 232 216 256 254 c 1
 278 214 300 176 322 136 c 1
296 410 m 1
 346 410 398 410 448 410 c 1
 422 240 398 68 372 -102 c 1
 346 68 322 240 296 410 c 1
60 410 m 1
 110 410 162 410 212 410 c 1
 186 240 162 68 136 -102 c 1
 110 68 86 240 60 410 c 1
EndSplineSet
EndChar

StartChar: I
Encoding: 73 73 8
Width: 512
Flags: HW
LayerCount: 2
Fore
SplineSet
644 -156 m 1050
316 -110 m 1
 276 -110 236 -110 196 -110 c 1
 216 -24 236 64 256 150 c 1
 276 64 296 -24 316 -110 c 1
316 410 m 1
 296 324 276 236 256 150 c 1
 236 236 216 324 196 410 c 1
 236 410 276 410 316 410 c 1
EndSplineSet
EndChar

StartChar: J
Encoding: 74 74 9
Width: 512
InSpiro: 1
Flags: HW
LayerCount: 2
Fore
SplineSet
632 -146 m 1050
  Spiro
    632 -146 {
    0 0 z
  EndSpiro
166 12 m 1
 124 0 l 1
 84 -14 l 1
 86 26 90 66 92 106 c 1
 116 74 140 42 166 12 c 1
  Spiro
    166 12 v
    124 0 v
    84 -14 v
    86.5156 25.96 o
    89.4844 66.04 o
    92 106 v
    116.05 74.1059 o
    140.617 42.5615 o
    0 0 z
  EndSpiro
110 -84 m 1
 134 -58 158 -32 182 -6 c 1
 228 -38 276 -70 322 -102 c 1
 216 -94 l 1
 110 -84 l 1
  Spiro
    110 -84 v
    182 -6 v
    228.472 -37.968 o
    275.528 -70.032 o
    322 -102 v
    216 -94 v
    0 0 z
  EndSpiro
358 218 m 1024
  Spiro
    358 218 {
    0 0 z
  EndSpiro
406 406 m 1
 384 238 364 70 342 -98 c 1
 322 70 302 238 280 406 c 1
 322 406 364 406 406 406 c 1
  Spiro
    406 406 v
    384.54 238.168 o
    363.46 69.832 o
    342 -98 v
    321.946 69.832 o
    301.387 238.168 o
    280 406 v
    0 0 z
  EndSpiro
EndSplineSet
EndChar

StartChar: K
Encoding: 75 75 10
Width: 512
Flags: HW
LayerCount: 2
Fore
SplineSet
188 406 m 1
 162 270 138 134 114 -4 c 1
 90 134 66 270 40 406 c 1
 90 406 138 406 188 406 c 1
176 150 m 1
 240 186 306 222 374 256 c 1
 348 194 324 134 298 72 c 1
 258 98 216 124 176 150 c 1
190 -36 m 1
 226 -10 262 14 298 40 c 1
 354 -8 408 -54 464 -102 c 1
 372 -80 280 -58 190 -36 c 1
EndSplineSet
EndChar

StartChar: L
Encoding: 76 76 11
Width: 512
Flags: HW
LayerCount: 2
Fore
SplineSet
212 -92 m 1
 212 -56 212 -20 212 16 c 1
 300 -2 386 -20 472 -38 c 1
 386 -56 300 -74 212 -92 c 1
100 390 m 1
 142 390 186 390 228 390 c 1
 206 228 186 64 164 -98 c 1
 142 64 122 228 100 390 c 1
EndSplineSet
EndChar

StartChar: M
Encoding: 77 77 12
Width: 512
Flags: HW
LayerCount: 2
Fore
SplineSet
268 -102 m 1
 308 -4 348 94 388 192 c 1
 428 94 468 -4 508 -102 c 1
 428 -102 348 -102 268 -102 c 1
172 182 m 1
 226 182 282 182 336 182 c 1
 310 98 282 16 254 -66 c 1
 228 18 200 100 172 182 c 1
0 -102 m 1
 40 -4 80 94 120 192 c 1
 160 92 200 -6 242 -102 c 1
 162 -102 80 -102 0 -102 c 1
EndSplineSet
EndChar

StartChar: N
Encoding: 78 78 13
Width: 512
Flags: HW
LayerCount: 2
Fore
SplineSet
274 -102 m 1
 242 62 210 224 176 386 c 1
 230 236 284 86 338 -66 c 1
 316 -78 296 -90 274 -102 c 1
284 386 m 1
 330 386 374 386 420 386 c 1
 398 226 374 66 352 -94 c 1
 330 66 306 226 284 386 c 1
92 -94 m 1
 114 66 138 226 160 386 c 1
 182 226 206 66 228 -94 c 1
 182 -94 138 -94 92 -94 c 1
EndSplineSet
EndChar

StartChar: O
Encoding: 79 79 14
Width: 512
Flags: HW
LayerCount: 2
Fore
SplineSet
74 -22 m 1
 134 78 194 178 256 276 c 1
 318 178 378 78 438 -22 c 1
 316 -22 196 -22 74 -22 c 1
EndSplineSet
EndChar

StartChar: P
Encoding: 80 80 15
Width: 512
Flags: HW
LayerCount: 2
Fore
SplineSet
274 -106 m 1
 224 -106 174 -106 124 -106 c 1
 150 26 174 158 200 290 c 1
 224 158 248 26 274 -106 c 1
270 112 m 1
 270 212 270 310 270 410 c 1
 344 362 416 312 488 262 c 1
 416 212 342 162 270 112 c 1
EndSplineSet
EndChar

StartChar: Q
Encoding: 81 81 16
Width: 512
Flags: HW
LayerCount: 2
Fore
SplineSet
136 -24 m 1025
190 -4 m 1025
66 -8 m 1
 122 12 176 32 232 52 c 1
 214 16 198 -22 182 -60 c 1
 144 -42 104 -26 66 -8 c 1
352 -34 m 5
 272 52 192 136 112 220 c 1
 224 254 334 286 446 320 c 1
 416 202 384 84 352 -34 c 5
EndSplineSet
EndChar

StartChar: R
Encoding: 82 82 17
Width: 512
Flags: HW
LayerCount: 2
Fore
SplineSet
208 86 m 1
 294 34 382 -16 470 -66 c 1
 408 -74 344 -82 282 -90 c 1
 256 -32 232 26 208 86 c 1
174 -80 m 1025
192 -102 m 1
 156 -102 118 -102 82 -102 c 1
 100 48 118 198 136 346 c 1
 154 196 174 48 192 -102 c 1
200 100 m 1
 200 198 200 296 200 394 c 1
 256 344 312 296 368 248 c 1
 312 198 256 150 200 100 c 1
EndSplineSet
EndChar

StartChar: S
Encoding: 83 83 18
Width: 512
Flags: HW
LayerCount: 2
Fore
SplineSet
362 172 m 1
 280 210 198 250 118 290 c 1
 184 248 250 206 316 164 c 1
 280 132 244 102 206 72 c 1
 176 144 148 218 118 290 c 1
 187.333333333 290.585241004 256.666666667 298.904886231 326 304 c 1
 534 320 l 1
 476 270 420 222 362 172 c 1
232 54 m 1
 270 84 306 114 342 146 c 1
 372 74 400 0 430 -72 c 1
 366 -28 300 14 232 54 c 1
186 46 m 1
 266 6 348 -34 430 -72 c 1
 222 -86 l 1
 14 -102 l 1
 72 -52 128 -4 186 46 c 1
EndSplineSet
EndChar

StartChar: T
Encoding: 84 84 19
Width: 512
Flags: HW
LayerCount: 2
Fore
SplineSet
288 280 m 1
 288 312 288 346 288 378 c 1
 362 362 436 346 510 330 c 1
 400 304 l 1
 288 280 l 1
222 280 m 1
 148 296 74 312 0 330 c 1
 74 346 148 362 222 378 c 1
 222 346 222 312 222 280 c 1
202 244 m 1
 238 244 274 244 310 244 c 1
 290 130 272 14 256 -102 c 1
 238 12 220 128 202 244 c 1
EndSplineSet
EndChar

StartChar: U
Encoding: 85 85 20
Width: 512
Flags: HW
LayerCount: 2
Fore
SplineSet
440 246 m 1
 422 106 l 1
 406 -34 l 1
 358 -20 310 -4 262 10 c 1
 322 88 382 166 440 246 c 1
406 -34 m 1
 360 -58 312 -80 264 -102 c 1
 216 -80 168 -56 120 -34 c 1
 216 -34 310 -34 406 -34 c 1
86 246 m 1
 144 168 204 88 262 10 c 1
 214 -4 168 -20 120 -34 c 1
 102 106 l 1
 86 246 l 1
EndSplineSet
EndChar

StartChar: V
Encoding: 86 86 21
Width: 512
Flags: HW
LayerCount: 2
Fore
SplineSet
144 290 m 1
 218 290 294 290 368 290 c 1
 330 160 294 28 256 -102 c 1
 218 28 182 160 144 290 c 1
EndSplineSet
EndChar

StartChar: W
Encoding: 87 87 22
Width: 512
Flags: HW
LayerCount: 2
Fore
SplineSet
268 192 m 1
 348 192 428 192 508 192 c 1
 468 94 428 -4 388 -102 c 1
 348 -4 308 94 268 192 c 1
172 -92 m 1
 200 -10 228 72 254 156 c 1
 282 74 310 -8 336 -92 c 1
 282 -92 226 -92 172 -92 c 1
0 192 m 1
 80 192 162 192 242 192 c 1
 200 94 160 -4 120 -102 c 1
 80 -4 40 94 0 192 c 1
EndSplineSet
EndChar

StartChar: X
Encoding: 88 88 23
Width: 512
Flags: HW
LayerCount: 2
Fore
SplineSet
254 12 m 1
 292 52 330 90 368 128 c 1
 406 54 444 -22 480 -98 c 1
 406 -60 330 -24 254 12 c 1
254 12 m 1
 178 -24 102 -60 28 -98 c 1
 66 -24 102 52 138 128 c 1
 176 90 216 50 254 12 c 1
368 128 m 1
 330 166 292 204 254 244 c 1
 328 280 404 316 480 352 c 1
 442 278 406 202 368 128 c 1
138 128 m 1
 102 204 66 278 28 352 c 1
 102 316 178 280 254 244 c 1
 216 206 176 166 138 128 c 1
EndSplineSet
EndChar

StartChar: Y
Encoding: 89 89 24
Width: 512
Flags: HW
LayerCount: 2
Fore
SplineSet
214 -102 m 1
 228 0 242 102 256 204 c 1
 270 102 284 0 298 -102 c 1
 270 -102 242 -102 214 -102 c 1
256 204 m 1
 172 218 l 1
 88 230 l 1
 58 280 30 332 0 382 c 1
 84 322 170 262 256 204 c 1
256 204 m 1
 342 262 428 322 512 382 c 1
 482 332 454 280 424 230 c 1
 340 218 l 1
 256 204 l 1
EndSplineSet
EndChar

StartChar: Z
Encoding: 90 90 25
Width: 512
Flags: HW
LayerCount: 2
Fore
SplineSet
166 172 m 1
 108 222 52 270 -6 320 c 1
 202 304 l 1
 410 290 l 1
 330 250 248 210 166 172 c 1
212 164 m 1
 280 204 346 246 410 290 c 1
 380 218 352 144 322 72 c 1
 286 104 250 134 212 164 c 1
296 54 m 1
 230 12 164 -30 100 -72 c 1
 182 -34 262 6 342 46 c 1
 400 -4 456 -52 514 -102 c 1
 306 -86 l 1
 100 -72 l 1
 128 2 156 74 186 146 c 1
 224 116 260 86 296 54 c 1
EndSplineSet
EndChar

StartChar: a
Encoding: 97 97 26
Width: 512
Flags: HW
LayerCount: 2
Fore
SplineSet
384 -102 m 1
 298 -102 214 -102 128 -102 c 1
 170 48 214 196 256 346 c 1
 298 196 342 48 384 -102 c 1
EndSplineSet
EndChar

StartChar: b
Encoding: 98 98 27
Width: 512
Flags: HW
LayerCount: 2
Fore
SplineSet
204 -102 m 1
 160 -16 116 70 70 154 c 1
 96 204 122 252 148 302 c 2
 166 338 186 374 204 410 c 1
 274 368 342 326 410 282 c 1
 342 238 274 196 204 154 c 1
 274 112 342 70 410 26 c 1
 342 -18 274 -60 204 -102 c 1
EndSplineSet
EndChar

StartChar: c
Encoding: 99 99 28
Width: 512
Flags: HW
LayerCount: 2
Fore
SplineSet
156 308 m 1050
220 64 m 1
 288 36 356 8 424 -20 c 1
 356 -46 288 -74 220 -102 c 1
 174 -26 128 50 84 128 c 1
 128 206 174 282 220 358 c 1
 288 330 356 302 424 276 c 1
 356 248 288 220 220 192 c 1
 220 150 220 106 220 64 c 1
EndSplineSet
EndChar

StartChar: d
Encoding: 100 100 29
Width: 512
Flags: HW
LayerCount: 2
Fore
SplineSet
154 -102 m 1
 154 68 154 240 154 410 c 1
 222 324 290 240 358 154 c 1
 290 68 222 -16 154 -102 c 1
EndSplineSet
EndChar

StartChar: e
Encoding: 101 101 30
Width: 512
Flags: HW
LayerCount: 2
Fore
SplineSet
128 76 m 1
 128 128 128 178 128 230 c 1
 214 204 298 180 384 154 c 1
 298 128 212 102 128 76 c 1
128 -102 m 1
 128 -50 128 0 128 52 c 1
 212 26 298 0 384 -26 c 1
 298 -52 214 -76 128 -102 c 1
128 256 m 1
 128 308 128 358 128 410 c 1
 214 384 300 358 384 332 c 1
 298 306 214 282 128 256 c 1
EndSplineSet
EndChar

StartChar: f
Encoding: 102 102 31
Width: 512
Flags: HW
LayerCount: 2
Fore
SplineSet
110 358 m 1
 144 358 176 358 210 358 c 1
 192 206 176 52 160 -102 c 1
 144 52 128 206 110 358 c 1
236 102 m 1
 236 136 236 170 236 204 c 1
 298 186 360 170 422 152 c 1
 330 126 l 1
 236 102 l 1
236 240 m 1
 236 288 236 334 236 382 c 1
 320 358 406 334 492 312 c 1
 406 288 322 264 236 240 c 1
EndSplineSet
EndChar

StartChar: g
Encoding: 103 103 32
Width: 512
Flags: HW
LayerCount: 2
Fore
SplineSet
402 138 m 1
 424 98 l 1
 448 60 l 1
 384 10 318 -38 252 -86 c 1
 186 -38 120 10 56 60 c 1
 92 130 128 202 164 274 c 1
 226 150 l 1
 164 274 l 1
 234 272 l 1
 306 272 l 1
 280 232 254 190 226 150 c 1
 272 60 l 1
 354 60 l 1
 356 62 l 1
 340 86 328 110 314 136 c 1
 358 136 l 1
 402 138 l 1
EndSplineSet
EndChar

StartChar: h
Encoding: 104 104 33
Width: 512
Flags: HW
LayerCount: 2
Fore
SplineSet
322 136 m 1
 278 136 232 136 188 136 c 1
 210 176 232 216 256 254 c 1
 278 214 300 176 322 136 c 1
296 410 m 1
 346 410 398 410 448 410 c 1
 422 240 398 68 372 -102 c 1
 346 68 322 240 296 410 c 1
60 410 m 1
 110 410 162 410 212 410 c 1
 186 240 162 68 136 -102 c 1
 110 68 86 240 60 410 c 1
EndSplineSet
EndChar

StartChar: i
Encoding: 105 105 34
Width: 512
Flags: HW
LayerCount: 2
Fore
SplineSet
644 -156 m 1050
316 -110 m 1
 276 -110 236 -110 196 -110 c 1
 216 -24 236 64 256 150 c 1
 276 64 296 -24 316 -110 c 1
316 410 m 1
 296 324 276 236 256 150 c 1
 236 236 216 324 196 410 c 1
 236 410 276 410 316 410 c 1
EndSplineSet
EndChar

StartChar: j
Encoding: 106 106 35
Width: 512
Flags: HW
LayerCount: 2
Fore
SplineSet
632 -146 m 1050
  Spiro
    632 -146 {
    0 0 z
  EndSpiro
166 12 m 1
 124 0 l 1
 84 -14 l 1
 86 26 90 66 92 106 c 1
 116 74 140 42 166 12 c 1
  Spiro
    166 12 v
    124 0 v
    84 -14 v
    86.5156 25.96 o
    89.4844 66.04 o
    92 106 v
    116.05 74.1059 o
    140.617 42.5615 o
    0 0 z
  EndSpiro
110 -84 m 1
 134 -58 158 -32 182 -6 c 1
 228 -38 276 -70 322 -102 c 1
 216 -94 l 1
 110 -84 l 1
  Spiro
    110 -84 v
    182 -6 v
    228.472 -37.968 o
    275.528 -70.032 o
    322 -102 v
    216 -94 v
    0 0 z
  EndSpiro
358 218 m 1024
  Spiro
    358 218 {
    0 0 z
  EndSpiro
406 406 m 1
 384 238 364 70 342 -98 c 1
 322 70 302 238 280 406 c 1
 322 406 364 406 406 406 c 1
  Spiro
    406 406 v
    384.54 238.168 o
    363.46 69.832 o
    342 -98 v
    321.946 69.832 o
    301.387 238.168 o
    280 406 v
    0 0 z
  EndSpiro
EndSplineSet
EndChar

StartChar: k
Encoding: 107 107 36
Width: 512
Flags: HW
LayerCount: 2
Fore
SplineSet
188 406 m 1
 162 270 138 134 114 -4 c 1
 90 134 66 270 40 406 c 1
 90 406 138 406 188 406 c 1
176 150 m 1
 240 186 306 222 374 256 c 1
 348 194 324 134 298 72 c 1
 258 98 216 124 176 150 c 1
190 -36 m 1
 226 -10 262 14 298 40 c 1
 354 -8 408 -54 464 -102 c 1
 372 -80 280 -58 190 -36 c 1
EndSplineSet
EndChar

StartChar: l
Encoding: 108 108 37
Width: 512
Flags: HW
LayerCount: 2
Fore
SplineSet
212 -92 m 1
 212 -56 212 -20 212 16 c 1
 300 -2 386 -20 472 -38 c 1
 386 -56 300 -74 212 -92 c 1
100 390 m 1
 142 390 186 390 228 390 c 1
 206 228 186 64 164 -98 c 1
 142 64 122 228 100 390 c 1
EndSplineSet
EndChar

StartChar: m
Encoding: 109 109 38
Width: 512
Flags: HW
LayerCount: 2
Fore
SplineSet
268 -102 m 1
 308 -4 348 94 388 192 c 1
 428 94 468 -4 508 -102 c 1
 428 -102 348 -102 268 -102 c 1
172 182 m 1
 226 182 282 182 336 182 c 1
 310 98 282 16 254 -66 c 1
 228 18 200 100 172 182 c 1
0 -102 m 1
 40 -4 80 94 120 192 c 1
 160 92 200 -6 242 -102 c 1
 162 -102 80 -102 0 -102 c 1
EndSplineSet
EndChar

StartChar: n
Encoding: 110 110 39
Width: 512
Flags: HW
LayerCount: 2
Fore
SplineSet
274 -102 m 1
 242 62 210 224 176 386 c 1
 230 236 284 86 338 -66 c 1
 316 -78 296 -90 274 -102 c 1
284 386 m 1
 330 386 374 386 420 386 c 1
 398 226 374 66 352 -94 c 1
 330 66 306 226 284 386 c 1
92 -94 m 1
 114 66 138 226 160 386 c 1
 182 226 206 66 228 -94 c 1
 182 -94 138 -94 92 -94 c 1
EndSplineSet
EndChar

StartChar: o
Encoding: 111 111 40
Width: 512
Flags: HW
LayerCount: 2
Fore
SplineSet
74 -22 m 1
 134 78 194 178 256 276 c 1
 318 178 378 78 438 -22 c 1
 316 -22 196 -22 74 -22 c 1
EndSplineSet
EndChar

StartChar: p
Encoding: 112 112 41
Width: 512
Flags: HW
LayerCount: 2
Fore
SplineSet
274 -106 m 1
 224 -106 174 -106 124 -106 c 1
 150 26 174 158 200 290 c 1
 224 158 248 26 274 -106 c 1
270 112 m 1
 270 212 270 310 270 410 c 1
 344 362 416 312 488 262 c 1
 416 212 342 162 270 112 c 1
EndSplineSet
EndChar

StartChar: q
Encoding: 113 113 42
Width: 512
Flags: HW
LayerCount: 2
Fore
SplineSet
136 -24 m 1025
190 -4 m 1025
66 -8 m 1
 122 12 176 32 232 52 c 1
 214 16 198 -22 182 -60 c 1
 144 -42 104 -26 66 -8 c 1
352 -34 m 5
 272 52 192 136 112 220 c 1
 224 254 334 286 446 320 c 1
 416 202 384 84 352 -34 c 5
EndSplineSet
EndChar

StartChar: r
Encoding: 114 114 43
Width: 512
Flags: HW
LayerCount: 2
Fore
SplineSet
208 86 m 1
 294 34 382 -16 470 -66 c 1
 408 -74 344 -82 282 -90 c 1
 256 -32 232 26 208 86 c 1
174 -80 m 1025
192 -102 m 1
 156 -102 118 -102 82 -102 c 1
 100 48 118 198 136 346 c 1
 154 196 174 48 192 -102 c 1
200 100 m 1
 200 198 200 296 200 394 c 1
 256 344 312 296 368 248 c 1
 312 198 256 150 200 100 c 1
EndSplineSet
EndChar

StartChar: s
Encoding: 115 115 44
Width: 512
Flags: HW
LayerCount: 2
Fore
SplineSet
362 172 m 1
 280 210 198 250 118 290 c 1
 184 248 250 206 316 164 c 1
 280 132 244 102 206 72 c 1
 176 144 148 218 118 290 c 1
 187.333333333 290.585241004 256.666666667 298.904886231 326 304 c 1
 534 320 l 1
 476 270 420 222 362 172 c 1
232 54 m 1
 270 84 306 114 342 146 c 1
 372 74 400 0 430 -72 c 1
 366 -28 300 14 232 54 c 1
186 46 m 1
 266 6 348 -34 430 -72 c 1
 222 -86 l 1
 14 -102 l 1
 72 -52 128 -4 186 46 c 1
EndSplineSet
EndChar

StartChar: t
Encoding: 116 116 45
Width: 512
Flags: HW
LayerCount: 2
Fore
SplineSet
288 280 m 1
 288 312 288 346 288 378 c 1
 362 362 436 346 510 330 c 1
 400 304 l 1
 288 280 l 1
222 280 m 1
 148 296 74 312 0 330 c 1
 74 346 148 362 222 378 c 1
 222 346 222 312 222 280 c 1
202 244 m 1
 238 244 274 244 310 244 c 1
 290 130 272 14 256 -102 c 1
 238 12 220 128 202 244 c 1
EndSplineSet
EndChar

StartChar: u
Encoding: 117 117 46
Width: 512
Flags: HW
LayerCount: 2
Fore
SplineSet
440 246 m 1
 422 106 l 1
 406 -34 l 1
 358 -20 310 -4 262 10 c 1
 322 88 382 166 440 246 c 1
406 -34 m 1
 360 -58 312 -80 264 -102 c 1
 216 -80 168 -56 120 -34 c 1
 216 -34 310 -34 406 -34 c 1
86 246 m 1
 144 168 204 88 262 10 c 1
 214 -4 168 -20 120 -34 c 1
 102 106 l 1
 86 246 l 1
EndSplineSet
EndChar

StartChar: v
Encoding: 118 118 47
Width: 512
Flags: HW
LayerCount: 2
Fore
SplineSet
144 290 m 1
 218 290 294 290 368 290 c 1
 330 160 294 28 256 -102 c 1
 218 28 182 160 144 290 c 1
EndSplineSet
EndChar

StartChar: w
Encoding: 119 119 48
Width: 512
Flags: HW
LayerCount: 2
Fore
SplineSet
268 192 m 1
 348 192 428 192 508 192 c 1
 468 94 428 -4 388 -102 c 1
 348 -4 308 94 268 192 c 1
172 -92 m 1
 200 -10 228 72 254 156 c 1
 282 74 310 -8 336 -92 c 1
 282 -92 226 -92 172 -92 c 1
0 192 m 1
 80 192 162 192 242 192 c 1
 200 94 160 -4 120 -102 c 1
 80 -4 40 94 0 192 c 1
EndSplineSet
EndChar

StartChar: x
Encoding: 120 120 49
Width: 512
Flags: HW
LayerCount: 2
Fore
SplineSet
254 12 m 1
 292 52 330 90 368 128 c 1
 406 54 444 -22 480 -98 c 1
 406 -60 330 -24 254 12 c 1
254 12 m 1
 178 -24 102 -60 28 -98 c 1
 66 -24 102 52 138 128 c 1
 176 90 216 50 254 12 c 1
368 128 m 1
 330 166 292 204 254 244 c 1
 328 280 404 316 480 352 c 1
 442 278 406 202 368 128 c 1
138 128 m 1
 102 204 66 278 28 352 c 1
 102 316 178 280 254 244 c 1
 216 206 176 166 138 128 c 1
EndSplineSet
EndChar

StartChar: y
Encoding: 121 121 50
Width: 512
Flags: HW
LayerCount: 2
Fore
SplineSet
214 -102 m 1
 228 0 242 102 256 204 c 1
 270 102 284 0 298 -102 c 1
 270 -102 242 -102 214 -102 c 1
256 204 m 1
 172 218 l 1
 88 230 l 1
 58 280 30 332 0 382 c 1
 84 322 170 262 256 204 c 1
256 204 m 1
 342 262 428 322 512 382 c 1
 482 332 454 280 424 230 c 1
 340 218 l 1
 256 204 l 1
EndSplineSet
EndChar

StartChar: z
Encoding: 122 122 51
Width: 512
Flags: HW
LayerCount: 2
Fore
SplineSet
166 172 m 1
 108 222 52 270 -6 320 c 1
 202 304 l 1
 410 290 l 1
 330 250 248 210 166 172 c 1
212 164 m 1
 280 204 346 246 410 290 c 1
 380 218 352 144 322 72 c 1
 286 104 250 134 212 164 c 1
296 54 m 1
 230 12 164 -30 100 -72 c 1
 182 -34 262 6 342 46 c 1
 400 -4 456 -52 514 -102 c 1
 306 -86 l 1
 100 -72 l 1
 128 2 156 74 186 146 c 1
 224 116 260 86 296 54 c 1
EndSplineSet
EndChar

StartChar: space
Encoding: 32 32 52
Width: 512
Flags: HW
LayerCount: 2
Fore
SplineSet
496 224 m 26
 0 222 l 1050
EndSplineSet
Validated: 3
EndChar
